<svg width="35" height="23" viewBox="0 0 35 23" fill="none" xmlns="http://www.w3.org/2000/svg">
<path d="M31.3023 1.49074H22.5196V3.93326H31.3369L31.3023 1.49074ZM29.4488 18.2939C28.7825 18.7353 27.9957 18.9593 27.1968 18.9348C26.668 18.9899 26.1335 18.9353 25.6268 18.7743C25.12 18.6134 24.652 18.3496 24.2519 17.9994C23.5123 17.1607 23.1272 16.0676 23.1779 14.9506H34.6456C34.7283 13.7874 34.6289 12.6185 34.3511 11.486C34.0824 10.4086 33.6122 9.39172 32.9653 8.48915C32.3142 7.61366 31.4732 6.89704 30.5054 6.39309C29.4287 5.86222 28.2412 5.59503 27.0409 5.61357C25.912 5.6053 24.7929 5.82323 23.7496 6.25451C22.7942 6.65725 21.9286 7.24612 21.2031 7.98679C20.4797 8.74226 19.9195 9.63855 19.5574 10.6199C19.1689 11.6792 18.9752 12.8002 18.9858 13.9285C18.968 15.0729 19.1557 16.2111 19.5401 17.2891C19.8666 18.2653 20.3849 19.1664 21.0645 19.9395C21.7677 20.6985 22.6318 21.2904 23.5936 21.6718C24.6661 22.0804 25.8068 22.2803 26.9543 22.2608C28.5643 22.311 30.1539 21.8895 31.5275 21.0482C32.9149 20.0623 33.9138 18.6222 34.3511 16.9773H30.5228C30.3178 17.5215 29.9407 17.9838 29.4488 18.2939ZM23.507 11.1569C23.6419 10.725 23.8657 10.3261 24.164 9.98599C24.4624 9.64586 24.8287 9.372 25.2393 9.18206C25.7832 8.93727 26.3754 8.81882 26.9716 8.83561C27.4023 8.79882 27.8358 8.85564 28.2425 9.00215C28.6491 9.14867 29.0192 9.38141 29.3275 9.68442C29.9161 10.4049 30.2938 11.2743 30.4188 12.1962H23.2299C23.2579 11.8442 23.3218 11.4959 23.4204 11.1569H23.507ZM14.3433 10.3254C15.2249 9.95823 15.991 9.35972 16.5606 8.59309C17.0841 7.77892 17.3442 6.82327 17.3055 5.85609C17.3394 4.97407 17.1674 4.09628 16.8031 3.29231C16.497 2.59579 16.0057 1.99661 15.3826 1.56003C14.722 1.10613 13.9719 0.798977 13.1826 0.659246C12.2486 0.463348 11.296 0.370405 10.3417 0.382081H0V22.1742H10.5669C11.5312 22.1749 12.4917 22.0526 13.4252 21.8104C14.3099 21.5815 15.1481 21.2005 15.9023 20.6844C16.6329 20.1781 17.2278 19.4999 17.6346 18.7096C18.0848 17.8258 18.3053 16.8428 18.2756 15.8513C18.3084 14.6227 17.9637 13.4135 17.2882 12.3868C16.5616 11.3542 15.484 10.6214 14.2567 10.3254H14.3433ZM4.79841 4.10648H9.28502C9.69721 4.10597 10.1087 4.14075 10.5149 4.21042C10.889 4.26586 11.2483 4.39542 11.5716 4.59152C11.884 4.76824 12.1372 5.03344 12.2992 5.35372C12.4998 5.7378 12.5954 6.16806 12.5764 6.60097C12.6086 6.97382 12.5516 7.349 12.41 7.69543C12.2684 8.04186 12.0464 8.34957 11.7622 8.59309C11.1422 9.01928 10.4004 9.2321 9.6488 9.19939H4.79841V4.10648ZM13.1826 16.9946C13.0047 17.3477 12.7355 17.6467 12.4031 17.8608C12.0572 18.0759 11.676 18.2284 11.2771 18.3112C10.8338 18.4104 10.3802 18.4569 9.92596 18.4498H4.72912V12.4734H9.92596C10.8178 12.4343 11.6985 12.6834 12.4378 13.1836C12.7718 13.4834 13.0305 13.8575 13.193 14.2759C13.3555 14.6942 13.4173 15.1449 13.3732 15.5915C13.42 16.0677 13.3548 16.5482 13.1826 16.9946Z" fill="white"/>
</svg>
