<svg width="26" height="26" viewBox="0 0 24 24" fill="none" xmlns="http://www.w3.org/2000/svg">
<path fill-rule="evenodd" clip-rule="evenodd" d="M11 3C9.34315 3 8 4.34315 8 6V7H4.97583C3.87126 7 2.97583 7.89543 2.97583 9V20C2.97583 21.1046 3.87126 22 4.97583 22H19.0081C20.1127 22 21.0081 21.1046 21.0081 20V9C21.0081 7.89543 20.1127 7 19.0081 7H16V6C16 4.34315 14.6569 3 13 3H11ZM14 9V10C14 10.5523 14.4477 11 15 11C15.5523 11 16 10.5523 16 10V9H19.0081V20H4.97583L4.97583 9H8V10C8 10.5523 8.44772 11 9 11C9.55228 11 10 10.5523 10 10V9H14ZM14 7V6C14 5.44772 13.5523 5 13 5H11C10.4477 5 10 5.44772 10 6V7H14Z" fill="#fff"/>
</svg>
