<svg width="36" height="35" viewBox="0 0 36 35" fill="none" xmlns="http://www.w3.org/2000/svg">
<path d="M33.398 0H2.56347C2.05809 0 1.57342 0.200758 1.21607 0.55811C0.858717 0.915463 0.657959 1.40014 0.657959 1.90551V32.7401C0.657959 32.9903 0.707247 33.2381 0.803007 33.4693C0.898768 33.7005 1.03913 33.9105 1.21607 34.0875C1.39301 34.2644 1.60307 34.4048 1.83426 34.5005C2.06545 34.5963 2.31323 34.6456 2.56347 34.6456H19.1587V21.2204H14.6548V16.0236H19.1587V12.126C19.0654 11.2109 19.1734 10.2865 19.4752 9.4176C19.777 8.54871 20.2652 7.75636 20.9057 7.09613C21.5461 6.4359 22.3232 5.92377 23.1825 5.59568C24.0418 5.26758 24.9625 5.13145 25.88 5.19684C27.2282 5.18854 28.5759 5.25795 29.9162 5.40471V10.0819H27.1618C24.9792 10.0819 24.5634 11.1212 24.5634 12.6283V15.9716H29.7603L29.0847 21.1685H24.5634V34.6456H33.398C33.6483 34.6456 33.8961 34.5963 34.1273 34.5005C34.3584 34.4048 34.5685 34.2644 34.7454 34.0875C34.9224 33.9105 35.0627 33.7005 35.1585 33.4693C35.2543 33.2381 35.3036 32.9903 35.3036 32.7401V1.90551C35.3036 1.65527 35.2543 1.40749 35.1585 1.1763C35.0627 0.945115 34.9224 0.735053 34.7454 0.55811C34.5685 0.381168 34.3584 0.240809 34.1273 0.145048C33.8961 0.0492876 33.6483 0 33.398 0Z" fill="white"/>
</svg>
