<svg width="24" height="24" viewBox="0 0 24 24" fill="none" xmlns="http://www.w3.org/2000/svg">
<path fill-rule="evenodd" clip-rule="evenodd" d="M11 3C9.34314 3 8 4.34315 8 6V8C8 8.55228 8.44771 9 9 9C9.55228 9 10 8.55228 10 8V6C10 5.44772 10.4477 5 11 5H19C19.5523 5 20 5.44772 20 6V18C20 18.5523 19.5523 19 19 19H11C10.4477 19 10 18.5523 10 18V16C10 15.4477 9.55228 15 9 15C8.44771 15 8 15.4477 8 16V18C8 19.6569 9.34315 21 11 21H19C20.6569 21 22 19.6569 22 18V6C22 4.34315 20.6569 3 19 3H11ZM4 11C3.44771 11 3 11.4477 3 12C3 12.5523 3.44772 13 4 13L6.58577 13L6.29289 13.2929C5.90237 13.6834 5.90237 14.3166 6.29289 14.7071C6.68341 15.0976 7.31658 15.0976 7.7071 14.7071L9.7071 12.7071C9.89464 12.5196 10 12.2652 10 12C10 11.7348 9.89464 11.4804 9.7071 11.2929L7.7071 9.29289C7.31658 8.90237 6.68341 8.90236 6.29289 9.29289C5.90237 9.68341 5.90237 10.3166 6.29289 10.7071L6.58578 11L4 11Z" fill="#fff"/>
</svg>
