<svg width="24" height="24" viewBox="0 0 24 24" fill="none" xmlns="http://www.w3.org/2000/svg">
<path fill-rule="evenodd" clip-rule="evenodd" d="M17 4V6L5 6V4L17 4ZM17 2C18.1046 2 19 2.89543 19 4V6C19 7.10457 18.1046 8 17 8L5 8C3.89543 8 3 7.10457 3 6V4C3 2.89543 3.89543 2 5 2H17ZM20 21C20 21.5523 20.4477 22 21 22C21.5523 22 22 21.5523 22 21V3C22 2.44772 21.5523 2 21 2C20.4477 2 20 2.44772 20 3V21ZM17 13V11H8V13H17ZM19 11C19 9.89543 18.1046 9 17 9L8 9C6.89543 9 6 9.89543 6 11L6 13C6 14.1046 6.89543 15 8 15H17C18.1046 15 19 14.1046 19 13V11ZM17 18V20H12V18H17ZM17 16C18.1046 16 19 16.8954 19 18V20C19 21.1046 18.1046 22 17 22H12C10.8954 22 10 21.1046 10 20V18C10 16.8954 10.8954 16 12 16H17Z" fill="#fff"/>
</svg>
