<svg width="30" height="30" viewBox="0 0 24 24" fill="none" xmlns="http://www.w3.org/2000/svg">
<path fill-rule="evenodd" clip-rule="evenodd" d="M8.85698 12.7428C8.95148 12.5065 9.00003 12.2544 9.00003 12V9C9.00003 7.34315 10.3432 6 12 6C13.6569 6 15 7.34315 15 9V12C15 12.2544 15.0486 12.5065 15.1431 12.7428L16.046 15H7.95409L8.85698 12.7428ZM5.54858 15.6286L7.00003 12V9C7.00003 6.23858 9.2386 4 12 4C14.7615 4 17 6.23858 17 9V12L18.4515 15.6286C18.7142 16.2855 18.2305 17 17.523 17H6.47706C5.7696 17 5.28584 16.2855 5.54858 15.6286ZM11 18C10.4477 18 10 18.4477 10 19C10 19.5523 10.4477 20 11 20H13C13.5523 20 14 19.5523 14 19C14 18.4477 13.5523 18 13 18H11Z" fill="#fff"/>
</svg>
