<svg width="35" height="29" viewBox="0 0 35 29" fill="none" xmlns="http://www.w3.org/2000/svg">
<path d="M34.9334 3.60018C33.6313 4.16506 32.2543 4.53849 30.8453 4.70884C32.3319 3.82073 33.4459 2.42358 33.9807 0.776561C32.5837 1.60816 31.0545 2.19408 29.4594 2.50884C28.3933 1.35267 26.9736 0.583059 25.4229 0.320714C23.8722 0.0583689 22.2783 0.318128 20.8912 1.05925C19.5041 1.80037 18.4022 2.98094 17.7583 4.4158C17.1144 5.85065 16.965 7.45864 17.3335 8.98757C14.5089 8.8447 11.7459 8.10922 9.22408 6.82891C6.70225 5.54859 4.47796 3.75209 2.69571 1.55609C2.0706 2.64771 1.74212 3.88396 1.74296 5.14191C1.74074 6.31012 2.02743 7.46076 2.57749 8.49138C3.12756 9.522 3.92393 10.4006 4.89571 11.049C3.76622 11.0182 2.66087 10.7152 1.67367 10.1655V10.2521C1.68213 11.8889 2.2557 13.4726 3.29736 14.7352C4.33901 15.9978 5.78481 16.8619 7.39019 17.1813C6.77221 17.3693 6.1306 17.4685 5.48468 17.4757C5.03756 17.4705 4.59156 17.43 4.15083 17.3545C4.60799 18.7625 5.49269 19.993 6.68182 20.8747C7.87094 21.7565 9.30536 22.2457 10.7855 22.2742C8.28613 24.2408 5.20039 25.3141 2.02012 25.323C1.44108 25.3249 0.862501 25.2901 0.287842 25.219C3.53488 27.3155 7.31884 28.4285 11.1839 28.4237C13.8511 28.4514 16.497 27.9474 18.9672 26.9411C21.4374 25.9347 23.6823 24.4462 25.5708 22.5626C27.4593 20.6789 28.9535 18.4378 29.9662 15.9702C30.9789 13.5026 31.4897 10.858 31.4689 8.19072C31.4689 7.89623 31.4689 7.58442 31.4689 7.27261C32.8282 6.2589 34.0006 5.01619 34.9334 3.60018Z" fill="white"/>
</svg>
